{"title":"Delain - MFVF (Metal Female Voices Festival 2012) Dvdrip","uid":10074156,"size":306386410,"categoryP":"video","categoryS":"music_videos","magnet":"?xt=urn:btih:9ccc4e868560d624905f88efda874846182261a4&amp;dn=Delain+-+MFVF+%28Metal+Female+Voices+Festival+2012%29+Dvdrip&amp;tr=udp%3A%2F%2Ftracker.openbittorrent.com%3A80&amp;tr=udp%3A%2F%2Fopen.demonii.com%3A1337&amp;tr=udp%3A%2F%2Ftracker.coppersurfer.tk%3A6969&amp;tr=udp%3A%2F%2Fexodus.desync.com%3A6969","seeders":1,"leechers":0,"uploader":"Pitufo7777","files":1,"time":1398898441,"description":"An Excellent 21 minute set live from Delain!\n\n\nVideo\nID : 1\nFormat : AVC\nFormat/Info : Advanced Video Codec\nFormat profile : &lt;a class=&quot;__cf_email__&quot; href=&quot;/cdn-cgi/l/email-protection&quot; data-cfemail=&quot;c885a9a1a68884fce6f9&quot;&gt;[email&amp;#160;protected]&lt;/a&gt;&lt;script cf-hash='f9e31' type=&quot;text/javascript&quot;&gt;\n/* &lt;![CDATA[ */!function(){try{var t=&quot;currentScript&quot;in document?document.currentScript:function(){for(var t=document.getElementsByTagName(&quot;script&quot;),e=t.length;e--;)if(t[e].getAttribute(&quot;cf-hash&quot;))return t[e]}();if(t&amp;&amp;t.previousSibling){var e,r,n,i,c=t.previousSibling,a=c.getAttribute(&quot;data-cfemail&quot;);if(a){for(e=&quot;&quot;,r=parseInt(a.substr(0,2),16),n=2;a.length-n;n+=2)i=parseInt(a.substr(n,2),16)^r,e+=String.fromCharCode(i);e=document.createTextNode(e),c.parentNode.replaceChild(e,c)}}}catch(u){}}();/* ]]&gt; */&lt;/script&gt;\nFormat settings, CABAC : Yes\nFormat settings, ReFrames : 2 frames\nCodec ID : avc1\nCodec ID/Info : Advanced Video Coding\nDuration : 21mn 42s\nBit rate : 1 700 Kbps\nMaximum bit rate : 4 610 Kbps\nWidth : 720 pixels\nHeight : 400 pixels\nDisplay aspect ratio : 16:9\nFrame rate mode : Constant\nFrame rate : 25.000 fps\nColor space : YUV\nChroma subsampling : 4:2:0\nBit depth : 8 bits\nScan type : Progressive\nBits/(Pixel*Frame) : 0.236\nStream size : 262 MiB (90%)\n\nAudio\nID : 2\nFormat : AC-3\nFormat/Info : Audio Coding 3\nMode extension : CM (complete main)\nFormat settings, Endianness : Big\nCodec ID : ac-3\nDuration : 21mn 42s\nBit rate mode : Constant\nBit rate : 192 Kbps\nChannel(s) : 2 channels\nChannel positions : Front: L R\nSampling rate : 48.0 KHz\nBit depth : 16 bits\nCompression mode : Lossy\nStream size : 29.8 MiB (10%)\nTitle : Delain - Metal Female Voices Festival\nLanguage : English\n\n\nPlease SEED and Enjoy!\n\nPapaPitufo","torrent":{"xt":"urn:btih:9ccc4e868560d624905f88efda874846182261a4","amp;dn":"Delain+-+MFVF+%28Metal+Female+Voices+Festival+2012%29+Dvdrip","amp;tr":["udp%3A%2F%2Ftracker.openbittorrent.com%3A80","udp%3A%2F%2Fopen.demonii.com%3A1337","udp%3A%2F%2Ftracker.coppersurfer.tk%3A6969","udp%3A%2F%2Fexodus.desync.com%3A6969"],"infoHash":"9ccc4e868560d624905f88efda874846182261a4","infoHashBuffer":{"type":"Buffer","data":[156,204,78,134,133,96,214,36,144,95,136,239,218,135,72,70,24,34,97,164]},"announce":[],"urlList":[]}}